# Blender 4.1.1
# www.blender.org
mtllib silinder_beam2.mtl
o Cylinder.001
v -0.000000 1.904277 -0.110501
v 0.000000 3.084410 0.869532
v 0.046595 1.899687 -0.110501
v 0.276827 3.057145 0.869532
v 0.091399 1.886096 -0.110501
v 0.543016 2.976397 0.869532
v 0.132690 1.864025 -0.110501
v 0.788337 2.845270 0.869532
v 0.168883 1.834323 -0.110501
v 1.003363 2.668803 0.869532
v 0.198585 1.798131 -0.110501
v 1.179829 2.453778 0.869532
v 0.220656 1.756839 -0.110501
v 1.310956 2.208457 0.869532
v 0.234247 1.712035 -0.110501
v 1.391704 1.942268 0.869532
v 0.238836 1.665440 -0.110501
v 1.418969 1.665441 0.869532
v 0.234247 1.618846 -0.110501
v 1.391704 1.388614 0.869532
v 0.220656 1.574042 -0.110501
v 1.310956 1.122425 0.869532
v 0.198585 1.532750 -0.110501
v 1.179829 0.877104 0.869532
v 0.168883 1.496558 -0.110501
v 1.003363 0.662078 0.869532
v 0.132690 1.466855 -0.110501
v 0.788337 0.485611 0.869532
v 0.091399 1.444784 -0.110501
v 0.543016 0.354484 0.869532
v 0.046595 1.431193 -0.110501
v 0.276827 0.273737 0.869532
v -0.000000 1.426604 -0.110501
v 0.000000 0.246472 0.869532
v -0.046595 1.431193 -0.110501
v -0.276827 0.273737 0.869532
v -0.091399 1.444784 -0.110501
v -0.543016 0.354484 0.869532
v -0.132690 1.466855 -0.110501
v -0.788337 0.485611 0.869532
v -0.168883 1.496558 -0.110501
v -1.003363 0.662078 0.869532
v -0.198585 1.532750 -0.110501
v -1.179829 0.877104 0.869532
v -0.220656 1.574042 -0.110501
v -1.310956 1.122425 0.869532
v -0.234247 1.618846 -0.110501
v -1.391704 1.388614 0.869532
v -0.238836 1.665440 -0.110501
v -1.418969 1.665441 0.869532
v -0.234247 1.712035 -0.110501
v -1.391704 1.942268 0.869532
v -0.220656 1.756839 -0.110501
v -1.310956 2.208457 0.869532
v -0.198585 1.798131 -0.110501
v -1.179829 2.453778 0.869532
v -0.168883 1.834323 -0.110501
v -1.003363 2.668803 0.869532
v -0.132690 1.864025 -0.110501
v -0.788337 2.845270 0.869532
v -0.091399 1.886096 -0.110501
v -0.543016 2.976397 0.869532
v -0.046595 1.899687 -0.110501
v -0.276827 3.057145 0.869532
v -0.000000 2.276632 0.134507
v -0.000000 2.570867 0.379516
v -0.000000 2.827639 0.624524
v 0.226734 2.805307 0.624524
v 0.176640 2.553470 0.379516
v 0.119237 2.264888 0.134507
v 0.444754 2.739172 0.624524
v 0.346492 2.501946 0.379516
v 0.233893 2.230107 0.134507
v 0.645683 2.631773 0.624524
v 0.503028 2.418275 0.379516
v 0.339560 2.173627 0.134507
v 0.821798 2.487239 0.624524
v 0.640233 2.305674 0.379516
v 0.432177 2.097618 0.134507
v 0.966332 2.311123 0.624524
v 0.752835 2.168469 0.379516
v 0.508187 2.005000 0.134507
v 1.073731 2.110195 0.624524
v 0.836505 2.011932 0.379516
v 0.564667 1.899333 0.134507
v 1.139866 1.892174 0.624524
v 0.888029 1.842081 0.379516
v 0.599447 1.784678 0.134507
v 1.162198 1.665441 0.624524
v 0.905427 1.665441 0.379516
v 0.611191 1.665441 0.134507
v 1.139866 1.438707 0.624524
v 0.888029 1.488801 0.379516
v 0.599447 1.546203 0.134507
v 1.073731 1.220687 0.624524
v 0.836505 1.318949 0.379516
v 0.564667 1.431548 0.134507
v 0.966332 1.019758 0.624524
v 0.752835 1.162412 0.379516
v 0.508187 1.325881 0.134507
v 0.821798 0.843643 0.624524
v 0.640233 1.025207 0.379516
v 0.432177 1.233263 0.134507
v 0.645683 0.699109 0.624524
v 0.503028 0.912606 0.379516
v 0.339560 1.157254 0.134507
v 0.444754 0.591710 0.624524
v 0.346492 0.828936 0.379516
v 0.233893 1.100774 0.134507
v 0.226734 0.525574 0.624524
v 0.176640 0.777412 0.379516
v 0.119237 1.065993 0.134507
v -0.000000 0.503243 0.624524
v -0.000000 0.760014 0.379516
v -0.000000 1.054249 0.134507
v -0.226734 0.525574 0.624524
v -0.176640 0.777412 0.379516
v -0.119237 1.065993 0.134507
v -0.444754 0.591710 0.624524
v -0.346492 0.828936 0.379516
v -0.233893 1.100774 0.134507
v -0.645683 0.699109 0.624524
v -0.503028 0.912606 0.379516
v -0.339560 1.157254 0.134507
v -0.821798 0.843643 0.624524
v -0.640233 1.025207 0.379516
v -0.432177 1.233263 0.134507
v -0.966332 1.019758 0.624524
v -0.752835 1.162412 0.379516
v -0.508187 1.325881 0.134507
v -1.073731 1.220687 0.624524
v -0.836505 1.318949 0.379516
v -0.564667 1.431548 0.134507
v -1.139866 1.438707 0.624524
v -0.888029 1.488801 0.379516
v -0.599447 1.546203 0.134507
v -1.162198 1.665441 0.624524
v -0.905427 1.665441 0.379516
v -0.611191 1.665441 0.134507
v -1.139866 1.892174 0.624524
v -0.888029 1.842081 0.379516
v -0.599447 1.784678 0.134507
v -1.073731 2.110195 0.624524
v -0.836505 2.011932 0.379516
v -0.564667 1.899333 0.134507
v -0.966332 2.311123 0.624524
v -0.752835 2.168469 0.379516
v -0.508187 2.005000 0.134507
v -0.821798 2.487239 0.624524
v -0.640233 2.305674 0.379516
v -0.432177 2.097618 0.134507
v -0.645683 2.631773 0.624524
v -0.503028 2.418275 0.379516
v -0.339560 2.173627 0.134507
v -0.444754 2.739172 0.624524
v -0.346492 2.501946 0.379516
v -0.233893 2.230107 0.134507
v -0.226734 2.805307 0.624524
v -0.176640 2.553470 0.379516
v -0.119237 2.264888 0.134507
vn -0.0000 0.5497 -0.8354
vn -0.0000 0.6903 -0.7235
vn 0.1072 0.5391 -0.8354
vn 0.1347 0.6771 -0.7235
vn 0.2104 0.5078 -0.8354
vn 0.2642 0.6378 -0.7235
vn 0.3054 0.4570 -0.8354
vn 0.3835 0.5740 -0.7235
vn 0.3887 0.3887 -0.8354
vn 0.4881 0.4881 -0.7235
vn 0.4570 0.3054 -0.8354
vn 0.5740 0.3835 -0.7235
vn 0.5078 0.2104 -0.8354
vn 0.6378 0.2642 -0.7235
vn 0.5391 0.1072 -0.8354
vn 0.6771 0.1347 -0.7235
vn 0.5497 -0.0000 -0.8354
vn 0.6903 -0.0000 -0.7235
vn 0.5391 -0.1072 -0.8354
vn 0.6771 -0.1347 -0.7235
vn 0.5078 -0.2104 -0.8354
vn 0.6378 -0.2642 -0.7235
vn 0.4570 -0.3054 -0.8354
vn 0.5740 -0.3835 -0.7235
vn 0.3887 -0.3887 -0.8354
vn 0.4881 -0.4881 -0.7235
vn 0.3054 -0.4570 -0.8354
vn 0.3835 -0.5740 -0.7235
vn 0.2104 -0.5078 -0.8354
vn 0.2642 -0.6378 -0.7235
vn 0.1072 -0.5391 -0.8354
vn 0.1347 -0.6771 -0.7235
vn -0.0000 -0.5497 -0.8354
vn -0.0000 -0.6903 -0.7235
vn -0.1072 -0.5391 -0.8354
vn -0.1347 -0.6771 -0.7235
vn -0.2104 -0.5078 -0.8354
vn -0.2642 -0.6378 -0.7235
vn -0.3054 -0.4570 -0.8354
vn -0.3835 -0.5740 -0.7235
vn -0.3887 -0.3887 -0.8354
vn -0.4881 -0.4881 -0.7235
vn -0.4570 -0.3054 -0.8354
vn -0.5740 -0.3835 -0.7235
vn -0.5078 -0.2104 -0.8354
vn -0.6378 -0.2642 -0.7235
vn -0.5391 -0.1072 -0.8354
vn -0.6771 -0.1347 -0.7235
vn -0.5497 -0.0000 -0.8354
vn -0.6903 -0.0000 -0.7235
vn -0.5391 0.1072 -0.8354
vn -0.6771 0.1347 -0.7235
vn -0.5078 0.2104 -0.8354
vn -0.6378 0.2642 -0.7235
vn -0.4570 0.3054 -0.8354
vn -0.5740 0.3835 -0.7235
vn -0.3887 0.3887 -0.8354
vn -0.4881 0.4881 -0.7235
vn -0.3054 0.4570 -0.8354
vn -0.3835 0.5740 -0.7235
vn -0.2104 0.5078 -0.8354
vn -0.2642 0.6378 -0.7235
vn -0.1072 0.5391 -0.8354
vn -0.1347 0.6771 -0.7235
vn -0.0000 0.5999 -0.8001
vn -0.0000 0.6676 -0.7446
vn 0.1302 0.6547 -0.7446
vn 0.1170 0.5884 -0.8001
vn 0.2555 0.6167 -0.7446
vn 0.2296 0.5542 -0.8001
vn 0.3709 0.5551 -0.7446
vn 0.3333 0.4988 -0.8001
vn 0.4720 0.4720 -0.7446
vn 0.4242 0.4242 -0.8001
vn 0.5551 0.3709 -0.7446
vn 0.4988 0.3333 -0.8001
vn 0.6167 0.2555 -0.7446
vn 0.5542 0.2296 -0.8001
vn 0.6547 0.1302 -0.7446
vn 0.5884 0.1170 -0.8001
vn 0.6676 -0.0000 -0.7446
vn 0.5999 -0.0000 -0.8001
vn 0.6547 -0.1302 -0.7446
vn 0.5884 -0.1170 -0.8001
vn 0.6167 -0.2555 -0.7446
vn 0.5542 -0.2296 -0.8001
vn 0.5551 -0.3709 -0.7446
vn 0.4988 -0.3333 -0.8001
vn 0.4720 -0.4720 -0.7446
vn 0.4242 -0.4242 -0.8001
vn 0.3709 -0.5551 -0.7446
vn 0.3333 -0.4988 -0.8001
vn 0.2555 -0.6167 -0.7446
vn 0.2296 -0.5542 -0.8001
vn 0.1302 -0.6547 -0.7446
vn 0.1170 -0.5884 -0.8001
vn -0.0000 -0.6676 -0.7446
vn -0.0000 -0.5999 -0.8001
vn -0.1302 -0.6547 -0.7446
vn -0.1170 -0.5884 -0.8001
vn -0.2555 -0.6167 -0.7446
vn -0.2296 -0.5542 -0.8001
vn -0.3709 -0.5551 -0.7446
vn -0.3333 -0.4988 -0.8001
vn -0.4720 -0.4720 -0.7446
vn -0.4242 -0.4242 -0.8001
vn -0.5551 -0.3709 -0.7446
vn -0.4988 -0.3333 -0.8001
vn -0.6167 -0.2555 -0.7446
vn -0.5542 -0.2296 -0.8001
vn -0.6547 -0.1302 -0.7446
vn -0.5884 -0.1170 -0.8001
vn -0.6676 -0.0000 -0.7446
vn -0.5999 -0.0000 -0.8001
vn -0.6547 0.1302 -0.7446
vn -0.5884 0.1170 -0.8001
vn -0.6167 0.2555 -0.7446
vn -0.5542 0.2296 -0.8001
vn -0.5551 0.3709 -0.7446
vn -0.4988 0.3333 -0.8001
vn -0.4720 0.4720 -0.7446
vn -0.4242 0.4242 -0.8001
vn -0.3709 0.5551 -0.7446
vn -0.3333 0.4988 -0.8001
vn -0.2555 0.6167 -0.7446
vn -0.2296 0.5542 -0.8001
vn -0.1302 0.6547 -0.7446
vn -0.1170 0.5884 -0.8001
vt 1.000000 0.750000
vt 1.000000 1.000000
vt 0.968750 1.000000
vt 0.968750 0.750000
vt 0.937500 1.000000
vt 0.937500 0.750000
vt 0.906250 1.000000
vt 0.906250 0.750000
vt 0.875000 1.000000
vt 0.875000 0.750000
vt 0.843750 1.000000
vt 0.843750 0.750000
vt 0.812500 1.000000
vt 0.812500 0.750000
vt 0.781250 1.000000
vt 0.781250 0.750000
vt 0.750000 1.000000
vt 0.750000 0.750000
vt 0.718750 1.000000
vt 0.718750 0.750000
vt 0.687500 1.000000
vt 0.687500 0.750000
vt 0.656250 1.000000
vt 0.656250 0.750000
vt 0.625000 1.000000
vt 0.625000 0.750000
vt 0.593750 1.000000
vt 0.593750 0.750000
vt 0.562500 1.000000
vt 0.562500 0.750000
vt 0.531250 1.000000
vt 0.531250 0.750000
vt 0.500000 1.000000
vt 0.500000 0.750000
vt 0.468750 1.000000
vt 0.468750 0.750000
vt 0.437500 1.000000
vt 0.437500 0.750000
vt 0.406250 1.000000
vt 0.406250 0.750000
vt 0.375000 1.000000
vt 0.375000 0.750000
vt 0.343750 1.000000
vt 0.343750 0.750000
vt 0.312500 1.000000
vt 0.312500 0.750000
vt 0.281250 1.000000
vt 0.281250 0.750000
vt 0.250000 1.000000
vt 0.250000 0.750000
vt 0.218750 1.000000
vt 0.218750 0.750000
vt 0.187500 1.000000
vt 0.187500 0.750000
vt 0.156250 1.000000
vt 0.156250 0.750000
vt 0.125000 1.000000
vt 0.125000 0.750000
vt 0.093750 1.000000
vt 0.093750 0.750000
vt 0.062500 1.000000
vt 0.062500 0.750000
vt 0.031250 1.000000
vt 0.031250 0.750000
vt 0.000000 1.000000
vt 0.000000 0.750000
vt 0.031250 0.000000
vt 0.031250 0.250000
vt 0.000000 0.250000
vt 0.000000 0.000000
vt 0.031250 0.500000
vt 0.000000 0.500000
vt 0.062500 0.000000
vt 0.062500 0.250000
vt 0.062500 0.500000
vt 0.093750 0.000000
vt 0.093750 0.250000
vt 0.093750 0.500000
vt 0.125000 0.000000
vt 0.125000 0.250000
vt 0.125000 0.500000
vt 0.156250 0.000000
vt 0.156250 0.250000
vt 0.156250 0.500000
vt 0.187500 0.000000
vt 0.187500 0.250000
vt 0.187500 0.500000
vt 0.218750 0.000000
vt 0.218750 0.250000
vt 0.218750 0.500000
vt 0.250000 0.000000
vt 0.250000 0.250000
vt 0.250000 0.500000
vt 0.281250 0.000000
vt 0.281250 0.250000
vt 0.281250 0.500000
vt 0.312500 0.000000
vt 0.312500 0.250000
vt 0.312500 0.500000
vt 0.343750 0.000000
vt 0.343750 0.250000
vt 0.343750 0.500000
vt 0.375000 0.000000
vt 0.375000 0.250000
vt 0.375000 0.500000
vt 0.406250 0.000000
vt 0.406250 0.250000
vt 0.406250 0.500000
vt 0.437500 0.000000
vt 0.437500 0.250000
vt 0.437500 0.500000
vt 0.468750 0.000000
vt 0.468750 0.250000
vt 0.468750 0.500000
vt 0.500000 0.000000
vt 0.500000 0.250000
vt 0.500000 0.500000
vt 0.531250 0.000000
vt 0.531250 0.250000
vt 0.531250 0.500000
vt 0.562500 0.000000
vt 0.562500 0.250000
vt 0.562500 0.500000
vt 0.593750 0.000000
vt 0.593750 0.250000
vt 0.593750 0.500000
vt 0.625000 0.000000
vt 0.625000 0.250000
vt 0.625000 0.500000
vt 0.656250 0.000000
vt 0.656250 0.250000
vt 0.656250 0.500000
vt 0.687500 0.000000
vt 0.687500 0.250000
vt 0.687500 0.500000
vt 0.718750 0.000000
vt 0.718750 0.250000
vt 0.718750 0.500000
vt 0.750000 0.000000
vt 0.750000 0.250000
vt 0.750000 0.500000
vt 0.781250 0.000000
vt 0.781250 0.250000
vt 0.781250 0.500000
vt 0.812500 0.000000
vt 0.812500 0.250000
vt 0.812500 0.500000
vt 0.843750 0.000000
vt 0.843750 0.250000
vt 0.843750 0.500000
vt 0.875000 0.000000
vt 0.875000 0.250000
vt 0.875000 0.500000
vt 0.906250 0.000000
vt 0.906250 0.250000
vt 0.906250 0.500000
vt 0.937500 0.000000
vt 0.937500 0.250000
vt 0.937500 0.500000
vt 0.968750 0.000000
vt 0.968750 0.250000
vt 0.968750 0.500000
vt 1.000000 0.000000
vt 1.000000 0.250000
vt 1.000000 0.500000
s 1
f 67/1/2 2/2/2 4/3/4 68/4/4
f 68/4/4 4/3/4 6/5/6 71/6/6
f 71/6/6 6/5/6 8/7/8 74/8/8
f 74/8/8 8/7/8 10/9/10 77/10/10
f 77/10/10 10/9/10 12/11/12 80/12/12
f 80/12/12 12/11/12 14/13/14 83/14/14
f 83/14/14 14/13/14 16/15/16 86/16/16
f 86/16/16 16/15/16 18/17/18 89/18/18
f 89/18/18 18/17/18 20/19/20 92/20/20
f 92/20/20 20/19/20 22/21/22 95/22/22
f 95/22/22 22/21/22 24/23/24 98/24/24
f 98/24/24 24/23/24 26/25/26 101/26/26
f 101/26/26 26/25/26 28/27/28 104/28/28
f 104/28/28 28/27/28 30/29/30 107/30/30
f 107/30/30 30/29/30 32/31/32 110/32/32
f 110/32/32 32/31/32 34/33/34 113/34/34
f 113/34/34 34/33/34 36/35/36 116/36/36
f 116/36/36 36/35/36 38/37/38 119/38/38
f 119/38/38 38/37/38 40/39/40 122/40/40
f 122/40/40 40/39/40 42/41/42 125/42/42
f 125/42/42 42/41/42 44/43/44 128/44/44
f 128/44/44 44/43/44 46/45/46 131/46/46
f 131/46/46 46/45/46 48/47/48 134/48/48
f 134/48/48 48/47/48 50/49/50 137/50/50
f 137/50/50 50/49/50 52/51/52 140/52/52
f 140/52/52 52/51/52 54/53/54 143/54/54
f 143/54/54 54/53/54 56/55/56 146/56/56
f 146/56/56 56/55/56 58/57/58 149/58/58
f 149/58/58 58/57/58 60/59/60 152/60/60
f 152/60/60 60/59/60 62/61/62 155/62/62
f 155/62/62 62/61/62 64/63/64 158/64/64
f 158/64/64 64/63/64 2/65/2 67/66/2
f 63/67/63 160/68/128 65/69/65 1/70/1
f 160/68/128 159/71/127 66/72/66 65/69/65
f 159/71/127 158/64/64 67/66/2 66/72/66
f 61/73/61 157/74/126 160/68/128 63/67/63
f 157/74/126 156/75/125 159/71/127 160/68/128
f 156/75/125 155/62/62 158/64/64 159/71/127
f 59/76/59 154/77/124 157/74/126 61/73/61
f 154/77/124 153/78/123 156/75/125 157/74/126
f 153/78/123 152/60/60 155/62/62 156/75/125
f 57/79/57 151/80/122 154/77/124 59/76/59
f 151/80/122 150/81/121 153/78/123 154/77/124
f 150/81/121 149/58/58 152/60/60 153/78/123
f 55/82/55 148/83/120 151/80/122 57/79/57
f 148/83/120 147/84/119 150/81/121 151/80/122
f 147/84/119 146/56/56 149/58/58 150/81/121
f 53/85/53 145/86/118 148/83/120 55/82/55
f 145/86/118 144/87/117 147/84/119 148/83/120
f 144/87/117 143/54/54 146/56/56 147/84/119
f 51/88/51 142/89/116 145/86/118 53/85/53
f 142/89/116 141/90/115 144/87/117 145/86/118
f 141/90/115 140/52/52 143/54/54 144/87/117
f 49/91/49 139/92/114 142/89/116 51/88/51
f 139/92/114 138/93/113 141/90/115 142/89/116
f 138/93/113 137/50/50 140/52/52 141/90/115
f 47/94/47 136/95/112 139/92/114 49/91/49
f 136/95/112 135/96/111 138/93/113 139/92/114
f 135/96/111 134/48/48 137/50/50 138/93/113
f 45/97/45 133/98/110 136/95/112 47/94/47
f 133/98/110 132/99/109 135/96/111 136/95/112
f 132/99/109 131/46/46 134/48/48 135/96/111
f 43/100/43 130/101/108 133/98/110 45/97/45
f 130/101/108 129/102/107 132/99/109 133/98/110
f 129/102/107 128/44/44 131/46/46 132/99/109
f 41/103/41 127/104/106 130/101/108 43/100/43
f 127/104/106 126/105/105 129/102/107 130/101/108
f 126/105/105 125/42/42 128/44/44 129/102/107
f 39/106/39 124/107/104 127/104/106 41/103/41
f 124/107/104 123/108/103 126/105/105 127/104/106
f 123/108/103 122/40/40 125/42/42 126/105/105
f 37/109/37 121/110/102 124/107/104 39/106/39
f 121/110/102 120/111/101 123/108/103 124/107/104
f 120/111/101 119/38/38 122/40/40 123/108/103
f 35/112/35 118/113/100 121/110/102 37/109/37
f 118/113/100 117/114/99 120/111/101 121/110/102
f 117/114/99 116/36/36 119/38/38 120/111/101
f 33/115/33 115/116/98 118/113/100 35/112/35
f 115/116/98 114/117/97 117/114/99 118/113/100
f 114/117/97 113/34/34 116/36/36 117/114/99
f 31/118/31 112/119/96 115/116/98 33/115/33
f 112/119/96 111/120/95 114/117/97 115/116/98
f 111/120/95 110/32/32 113/34/34 114/117/97
f 29/121/29 109/122/94 112/119/96 31/118/31
f 109/122/94 108/123/93 111/120/95 112/119/96
f 108/123/93 107/30/30 110/32/32 111/120/95
f 27/124/27 106/125/92 109/122/94 29/121/29
f 106/125/92 105/126/91 108/123/93 109/122/94
f 105/126/91 104/28/28 107/30/30 108/123/93
f 25/127/25 103/128/90 106/125/92 27/124/27
f 103/128/90 102/129/89 105/126/91 106/125/92
f 102/129/89 101/26/26 104/28/28 105/126/91
f 23/130/23 100/131/88 103/128/90 25/127/25
f 100/131/88 99/132/87 102/129/89 103/128/90
f 99/132/87 98/24/24 101/26/26 102/129/89
f 21/133/21 97/134/86 100/131/88 23/130/23
f 97/134/86 96/135/85 99/132/87 100/131/88
f 96/135/85 95/22/22 98/24/24 99/132/87
f 19/136/19 94/137/84 97/134/86 21/133/21
f 94/137/84 93/138/83 96/135/85 97/134/86
f 93/138/83 92/20/20 95/22/22 96/135/85
f 17/139/17 91/140/82 94/137/84 19/136/19
f 91/140/82 90/141/81 93/138/83 94/137/84
f 90/141/81 89/18/18 92/20/20 93/138/83
f 15/142/15 88/143/80 91/140/82 17/139/17
f 88/143/80 87/144/79 90/141/81 91/140/82
f 87/144/79 86/16/16 89/18/18 90/141/81
f 13/145/13 85/146/78 88/143/80 15/142/15
f 85/146/78 84/147/77 87/144/79 88/143/80
f 84/147/77 83/14/14 86/16/16 87/144/79
f 11/148/11 82/149/76 85/146/78 13/145/13
f 82/149/76 81/150/75 84/147/77 85/146/78
f 81/150/75 80/12/12 83/14/14 84/147/77
f 9/151/9 79/152/74 82/149/76 11/148/11
f 79/152/74 78/153/73 81/150/75 82/149/76
f 78/153/73 77/10/10 80/12/12 81/150/75
f 7/154/7 76/155/72 79/152/74 9/151/9
f 76/155/72 75/156/71 78/153/73 79/152/74
f 75/156/71 74/8/8 77/10/10 78/153/73
f 5/157/5 73/158/70 76/155/72 7/154/7
f 73/158/70 72/159/69 75/156/71 76/155/72
f 72/159/69 71/6/6 74/8/8 75/156/71
f 3/160/3 70/161/68 73/158/70 5/157/5
f 70/161/68 69/162/67 72/159/69 73/158/70
f 69/162/67 68/4/4 71/6/6 72/159/69
f 1/163/1 65/164/65 70/161/68 3/160/3
f 65/164/65 66/165/66 69/162/67 70/161/68
f 66/165/66 67/1/2 68/4/4 69/162/67
