# Blender 4.1.1
# www.blender.org
mtllib silinder_beam.mtl
o Cylinder
v 0.000000 2.155811 0.068696
v 0.095666 2.146388 0.068696
v 0.187657 2.118484 0.068696
v 0.272435 2.073168 0.068696
v 0.346744 2.012185 0.068696
v 0.407728 1.937876 0.068696
v 0.453043 1.853097 0.068696
v 0.480948 1.761107 0.068696
v 0.490370 1.665440 0.068696
v 0.480948 1.569774 0.068696
v 0.453043 1.477784 0.068696
v 0.407728 1.393005 0.068696
v 0.346744 1.318696 0.068696
v 0.272435 1.257713 0.068696
v 0.187657 1.212397 0.068696
v 0.095666 1.184493 0.068696
v 0.000000 1.175070 0.068696
v -0.095666 1.184493 0.068696
v -0.187657 1.212397 0.068696
v -0.272435 1.257713 0.068696
v -0.346744 1.318696 0.068696
v -0.407728 1.393005 0.068696
v -0.453043 1.477784 0.068696
v -0.480948 1.569774 0.068696
v -0.490370 1.665440 0.068696
v -0.480948 1.761107 0.068696
v -0.453043 1.853097 0.068696
v -0.407728 1.937876 0.068696
v -0.346744 2.012185 0.068696
v -0.272435 2.073168 0.068696
v -0.187657 2.118484 0.068696
v -0.095666 2.146388 0.068696
v 0.000000 2.247818 0.733751
v 0.000000 2.316319 1.398806
v 0.000000 2.316319 2.063861
v 0.126980 2.303812 2.063861
v 0.126980 2.303812 1.398806
v 0.113616 2.236627 0.733751
v 0.249080 2.266773 2.063861
v 0.249080 2.266773 1.398806
v 0.222866 2.203487 0.733751
v 0.361608 2.206626 2.063861
v 0.361608 2.206626 1.398806
v 0.323551 2.149669 0.733751
v 0.460240 2.125681 2.063861
v 0.460240 2.125681 1.398806
v 0.411803 2.077243 0.733751
v 0.541185 2.027049 2.063861
v 0.541185 2.027049 1.398806
v 0.484229 1.988992 0.733751
v 0.601333 1.914521 2.063861
v 0.601333 1.914521 1.398806
v 0.538046 1.888307 0.733751
v 0.638371 1.792420 2.063861
v 0.638371 1.792420 1.398806
v 0.571187 1.779057 0.733751
v 0.650878 1.665440 2.063861
v 0.650878 1.665440 1.398806
v 0.582377 1.665440 0.733751
v 0.638371 1.538460 2.063861
v 0.638371 1.538460 1.398806
v 0.571187 1.551824 0.733751
v 0.601333 1.416360 2.063861
v 0.601333 1.416360 1.398806
v 0.538046 1.442574 0.733751
v 0.541185 1.303832 2.063861
v 0.541185 1.303832 1.398806
v 0.484229 1.341889 0.733751
v 0.460240 1.205200 2.063861
v 0.460240 1.205200 1.398806
v 0.411803 1.253638 0.733751
v 0.361608 1.124255 2.063861
v 0.361608 1.124255 1.398806
v 0.323551 1.181212 0.733751
v 0.249080 1.064108 2.063861
v 0.249080 1.064108 1.398806
v 0.222866 1.127394 0.733751
v 0.126980 1.027069 2.063861
v 0.126980 1.027069 1.398806
v 0.113616 1.094254 0.733751
v 0.000000 1.014562 2.063861
v 0.000000 1.014562 1.398806
v 0.000000 1.083063 0.733751
v -0.126980 1.027069 2.063861
v -0.126980 1.027069 1.398806
v -0.113616 1.094254 0.733751
v -0.249080 1.064108 2.063861
v -0.249080 1.064108 1.398806
v -0.222866 1.127394 0.733751
v -0.361608 1.124255 2.063861
v -0.361608 1.124255 1.398806
v -0.323551 1.181212 0.733751
v -0.460240 1.205200 2.063861
v -0.460240 1.205200 1.398806
v -0.411803 1.253638 0.733751
v -0.541185 1.303832 2.063861
v -0.541185 1.303832 1.398806
v -0.484229 1.341889 0.733751
v -0.601333 1.416360 2.063861
v -0.601333 1.416360 1.398806
v -0.538046 1.442574 0.733751
v -0.638371 1.538460 2.063861
v -0.638371 1.538460 1.398806
v -0.571187 1.551824 0.733751
v -0.650878 1.665440 2.063861
v -0.650878 1.665440 1.398806
v -0.582377 1.665440 0.733751
v -0.638371 1.792420 2.063861
v -0.638371 1.792420 1.398806
v -0.571187 1.779057 0.733751
v -0.601333 1.914521 2.063861
v -0.601333 1.914521 1.398806
v -0.538046 1.888307 0.733751
v -0.541185 2.027049 2.063861
v -0.541185 2.027049 1.398806
v -0.484229 1.988992 0.733751
v -0.460240 2.125681 2.063861
v -0.460240 2.125681 1.398806
v -0.411803 2.077243 0.733751
v -0.361608 2.206626 2.063861
v -0.361608 2.206626 1.398806
v -0.323551 2.149669 0.733751
v -0.249080 2.266773 2.063861
v -0.249080 2.266773 1.398806
v -0.222866 2.203487 0.733751
v -0.126980 2.303812 2.063861
v -0.126980 2.303812 1.398806
v -0.113616 2.236627 0.733751
vn -0.0000 0.9906 -0.1370
vn 0.1932 0.9715 -0.1370
vn 0.3791 0.9152 -0.1370
vn 0.5503 0.8236 -0.1370
vn 0.7004 0.7004 -0.1370
vn 0.8236 0.5503 -0.1370
vn 0.9152 0.3791 -0.1370
vn 0.9715 0.1932 -0.1370
vn 0.9906 -0.0000 -0.1370
vn 0.9715 -0.1932 -0.1370
vn 0.9152 -0.3791 -0.1370
vn 0.8236 -0.5503 -0.1370
vn 0.7004 -0.7004 -0.1370
vn 0.5503 -0.8236 -0.1370
vn 0.3791 -0.9152 -0.1370
vn 0.1932 -0.9715 -0.1370
vn -0.0000 -0.9906 -0.1370
vn -0.1932 -0.9715 -0.1370
vn -0.3791 -0.9152 -0.1370
vn -0.5503 -0.8236 -0.1370
vn -0.7004 -0.7004 -0.1370
vn -0.8236 -0.5503 -0.1370
vn -0.9152 -0.3791 -0.1370
vn -0.9715 -0.1932 -0.1370
vn -0.9906 -0.0000 -0.1370
vn -0.9715 0.1932 -0.1370
vn -0.9152 0.3791 -0.1370
vn -0.8236 0.5503 -0.1370
vn -0.7004 0.7004 -0.1370
vn -0.5503 0.8236 -0.1370
vn -0.3791 0.9152 -0.1370
vn -0.1932 0.9715 -0.1370
vn -0.0000 0.9929 -0.1193
vn -0.0000 0.9987 -0.0502
vn -0.0000 1.0000 -0.0000
vn 0.1951 0.9808 -0.0000
vn 0.1948 0.9796 -0.0502
vn 0.1937 0.9738 -0.1193
vn 0.3827 0.9239 -0.0000
vn 0.3822 0.9227 -0.0502
vn 0.3800 0.9173 -0.1193
vn 0.5556 0.8315 -0.0000
vn 0.5549 0.8304 -0.0502
vn 0.5516 0.8255 -0.1193
vn 0.7071 0.7071 -0.0000
vn 0.7062 0.7062 -0.0502
vn 0.7021 0.7021 -0.1193
vn 0.8315 0.5556 -0.0000
vn 0.8304 0.5549 -0.0502
vn 0.8255 0.5516 -0.1193
vn 0.9239 0.3827 -0.0000
vn 0.9227 0.3822 -0.0502
vn 0.9173 0.3800 -0.1193
vn 0.9808 0.1951 -0.0000
vn 0.9796 0.1948 -0.0502
vn 0.9738 0.1937 -0.1193
vn 1.0000 -0.0000 -0.0000
vn 0.9987 -0.0000 -0.0502
vn 0.9929 -0.0000 -0.1193
vn 0.9808 -0.1951 -0.0000
vn 0.9796 -0.1948 -0.0502
vn 0.9738 -0.1937 -0.1193
vn 0.9239 -0.3827 -0.0000
vn 0.9227 -0.3822 -0.0502
vn 0.9173 -0.3800 -0.1193
vn 0.8315 -0.5556 -0.0000
vn 0.8304 -0.5549 -0.0502
vn 0.8255 -0.5516 -0.1193
vn 0.7071 -0.7071 -0.0000
vn 0.7062 -0.7062 -0.0502
vn 0.7021 -0.7021 -0.1193
vn 0.5556 -0.8315 -0.0000
vn 0.5549 -0.8304 -0.0502
vn 0.5516 -0.8255 -0.1193
vn 0.3827 -0.9239 -0.0000
vn 0.3822 -0.9227 -0.0502
vn 0.3800 -0.9173 -0.1193
vn 0.1951 -0.9808 -0.0000
vn 0.1948 -0.9796 -0.0502
vn 0.1937 -0.9738 -0.1193
vn -0.0000 -1.0000 -0.0000
vn -0.0000 -0.9987 -0.0502
vn -0.0000 -0.9929 -0.1193
vn -0.1951 -0.9808 -0.0000
vn -0.1948 -0.9796 -0.0502
vn -0.1937 -0.9738 -0.1193
vn -0.3827 -0.9239 -0.0000
vn -0.3822 -0.9227 -0.0502
vn -0.3800 -0.9173 -0.1193
vn -0.5556 -0.8315 -0.0000
vn -0.5549 -0.8304 -0.0502
vn -0.5516 -0.8255 -0.1193
vn -0.7071 -0.7071 -0.0000
vn -0.7062 -0.7062 -0.0502
vn -0.7021 -0.7021 -0.1193
vn -0.8315 -0.5556 -0.0000
vn -0.8304 -0.5549 -0.0502
vn -0.8255 -0.5516 -0.1193
vn -0.9239 -0.3827 -0.0000
vn -0.9227 -0.3822 -0.0502
vn -0.9173 -0.3800 -0.1193
vn -0.9808 -0.1951 -0.0000
vn -0.9796 -0.1948 -0.0502
vn -0.9738 -0.1937 -0.1193
vn -1.0000 -0.0000 -0.0000
vn -0.9987 -0.0000 -0.0502
vn -0.9929 -0.0000 -0.1193
vn -0.9808 0.1951 -0.0000
vn -0.9796 0.1948 -0.0502
vn -0.9738 0.1937 -0.1193
vn -0.9239 0.3827 -0.0000
vn -0.9227 0.3822 -0.0502
vn -0.9173 0.3800 -0.1193
vn -0.8315 0.5556 -0.0000
vn -0.8304 0.5549 -0.0502
vn -0.8255 0.5516 -0.1193
vn -0.7071 0.7071 -0.0000
vn -0.7062 0.7062 -0.0502
vn -0.7021 0.7021 -0.1193
vn -0.5556 0.8315 -0.0000
vn -0.5549 0.8304 -0.0502
vn -0.5516 0.8255 -0.1193
vn -0.3827 0.9239 -0.0000
vn -0.3822 0.9227 -0.0502
vn -0.3800 0.9173 -0.1193
vn -0.1951 0.9808 -0.0000
vn -0.1948 0.9796 -0.0502
vn -0.1937 0.9738 -0.1193
vt 0.031250 0.000000
vt 0.031250 0.200000
vt 0.000000 0.200000
vt 0.000000 0.000000
vt 0.031250 0.400000
vt 0.000000 0.400000
vt 0.031250 0.600000
vt 0.000000 0.600000
vt 0.062500 0.000000
vt 0.062500 0.200000
vt 0.062500 0.400000
vt 0.062500 0.600000
vt 0.093750 0.000000
vt 0.093750 0.200000
vt 0.093750 0.400000
vt 0.093750 0.600000
vt 0.125000 0.000000
vt 0.125000 0.200000
vt 0.125000 0.400000
vt 0.125000 0.600000
vt 0.156250 0.000000
vt 0.156250 0.200000
vt 0.156250 0.400000
vt 0.156250 0.600000
vt 0.187500 0.000000
vt 0.187500 0.200000
vt 0.187500 0.400000
vt 0.187500 0.600000
vt 0.218750 0.000000
vt 0.218750 0.200000
vt 0.218750 0.400000
vt 0.218750 0.600000
vt 0.250000 0.000000
vt 0.250000 0.200000
vt 0.250000 0.400000
vt 0.250000 0.600000
vt 0.281250 0.000000
vt 0.281250 0.200000
vt 0.281250 0.400000
vt 0.281250 0.600000
vt 0.312500 0.000000
vt 0.312500 0.200000
vt 0.312500 0.400000
vt 0.312500 0.600000
vt 0.343750 0.000000
vt 0.343750 0.200000
vt 0.343750 0.400000
vt 0.343750 0.600000
vt 0.375000 0.000000
vt 0.375000 0.200000
vt 0.375000 0.400000
vt 0.375000 0.600000
vt 0.406250 0.000000
vt 0.406250 0.200000
vt 0.406250 0.400000
vt 0.406250 0.600000
vt 0.437500 0.000000
vt 0.437500 0.200000
vt 0.437500 0.400000
vt 0.437500 0.600000
vt 0.468750 0.000000
vt 0.468750 0.200000
vt 0.468750 0.400000
vt 0.468750 0.600000
vt 0.500000 0.000000
vt 0.500000 0.200000
vt 0.500000 0.400000
vt 0.500000 0.600000
vt 0.531250 0.000000
vt 0.531250 0.200000
vt 0.531250 0.400000
vt 0.531250 0.600000
vt 0.562500 0.000000
vt 0.562500 0.200000
vt 0.562500 0.400000
vt 0.562500 0.600000
vt 0.593750 0.000000
vt 0.593750 0.200000
vt 0.593750 0.400000
vt 0.593750 0.600000
vt 0.625000 0.000000
vt 0.625000 0.200000
vt 0.625000 0.400000
vt 0.625000 0.600000
vt 0.656250 0.000000
vt 0.656250 0.200000
vt 0.656250 0.400000
vt 0.656250 0.600000
vt 0.687500 0.000000
vt 0.687500 0.200000
vt 0.687500 0.400000
vt 0.687500 0.600000
vt 0.718750 0.000000
vt 0.718750 0.200000
vt 0.718750 0.400000
vt 0.718750 0.600000
vt 0.750000 0.000000
vt 0.750000 0.200000
vt 0.750000 0.400000
vt 0.750000 0.600000
vt 0.781250 0.000000
vt 0.781250 0.200000
vt 0.781250 0.400000
vt 0.781250 0.600000
vt 0.812500 0.000000
vt 0.812500 0.200000
vt 0.812500 0.400000
vt 0.812500 0.600000
vt 0.843750 0.000000
vt 0.843750 0.200000
vt 0.843750 0.400000
vt 0.843750 0.600000
vt 0.875000 0.000000
vt 0.875000 0.200000
vt 0.875000 0.400000
vt 0.875000 0.600000
vt 0.906250 0.000000
vt 0.906250 0.200000
vt 0.906250 0.400000
vt 0.906250 0.600000
vt 0.937500 0.000000
vt 0.937500 0.200000
vt 0.937500 0.400000
vt 0.937500 0.600000
vt 0.968750 0.000000
vt 0.968750 0.200000
vt 0.968750 0.400000
vt 0.968750 0.600000
vt 1.000000 0.000000
vt 1.000000 0.200000
vt 1.000000 0.400000
vt 1.000000 0.600000
s 1
f 32/1/32 128/2/128 33/3/33 1/4/1
f 128/2/128 127/5/127 34/6/34 33/3/33
f 127/5/127 126/7/126 35/8/35 34/6/34
f 31/9/31 125/10/125 128/2/128 32/1/32
f 125/10/125 124/11/124 127/5/127 128/2/128
f 124/11/124 123/12/123 126/7/126 127/5/127
f 30/13/30 122/14/122 125/10/125 31/9/31
f 122/14/122 121/15/121 124/11/124 125/10/125
f 121/15/121 120/16/120 123/12/123 124/11/124
f 29/17/29 119/18/119 122/14/122 30/13/30
f 119/18/119 118/19/118 121/15/121 122/14/122
f 118/19/118 117/20/117 120/16/120 121/15/121
f 28/21/28 116/22/116 119/18/119 29/17/29
f 116/22/116 115/23/115 118/19/118 119/18/119
f 115/23/115 114/24/114 117/20/117 118/19/118
f 27/25/27 113/26/113 116/22/116 28/21/28
f 113/26/113 112/27/112 115/23/115 116/22/116
f 112/27/112 111/28/111 114/24/114 115/23/115
f 26/29/26 110/30/110 113/26/113 27/25/27
f 110/30/110 109/31/109 112/27/112 113/26/113
f 109/31/109 108/32/108 111/28/111 112/27/112
f 25/33/25 107/34/107 110/30/110 26/29/26
f 107/34/107 106/35/106 109/31/109 110/30/110
f 106/35/106 105/36/105 108/32/108 109/31/109
f 24/37/24 104/38/104 107/34/107 25/33/25
f 104/38/104 103/39/103 106/35/106 107/34/107
f 103/39/103 102/40/102 105/36/105 106/35/106
f 23/41/23 101/42/101 104/38/104 24/37/24
f 101/42/101 100/43/100 103/39/103 104/38/104
f 100/43/100 99/44/99 102/40/102 103/39/103
f 22/45/22 98/46/98 101/42/101 23/41/23
f 98/46/98 97/47/97 100/43/100 101/42/101
f 97/47/97 96/48/96 99/44/99 100/43/100
f 21/49/21 95/50/95 98/46/98 22/45/22
f 95/50/95 94/51/94 97/47/97 98/46/98
f 94/51/94 93/52/93 96/48/96 97/47/97
f 20/53/20 92/54/92 95/50/95 21/49/21
f 92/54/92 91/55/91 94/51/94 95/50/95
f 91/55/91 90/56/90 93/52/93 94/51/94
f 19/57/19 89/58/89 92/54/92 20/53/20
f 89/58/89 88/59/88 91/55/91 92/54/92
f 88/59/88 87/60/87 90/56/90 91/55/91
f 18/61/18 86/62/86 89/58/89 19/57/19
f 86/62/86 85/63/85 88/59/88 89/58/89
f 85/63/85 84/64/84 87/60/87 88/59/88
f 17/65/17 83/66/83 86/62/86 18/61/18
f 83/66/83 82/67/82 85/63/85 86/62/86
f 82/67/82 81/68/81 84/64/84 85/63/85
f 16/69/16 80/70/80 83/66/83 17/65/17
f 80/70/80 79/71/79 82/67/82 83/66/83
f 79/71/79 78/72/78 81/68/81 82/67/82
f 15/73/15 77/74/77 80/70/80 16/69/16
f 77/74/77 76/75/76 79/71/79 80/70/80
f 76/75/76 75/76/75 78/72/78 79/71/79
f 14/77/14 74/78/74 77/74/77 15/73/15
f 74/78/74 73/79/73 76/75/76 77/74/77
f 73/79/73 72/80/72 75/76/75 76/75/76
f 13/81/13 71/82/71 74/78/74 14/77/14
f 71/82/71 70/83/70 73/79/73 74/78/74
f 70/83/70 69/84/69 72/80/72 73/79/73
f 12/85/12 68/86/68 71/82/71 13/81/13
f 68/86/68 67/87/67 70/83/70 71/82/71
f 67/87/67 66/88/66 69/84/69 70/83/70
f 11/89/11 65/90/65 68/86/68 12/85/12
f 65/90/65 64/91/64 67/87/67 68/86/68
f 64/91/64 63/92/63 66/88/66 67/87/67
f 10/93/10 62/94/62 65/90/65 11/89/11
f 62/94/62 61/95/61 64/91/64 65/90/65
f 61/95/61 60/96/60 63/92/63 64/91/64
f 9/97/9 59/98/59 62/94/62 10/93/10
f 59/98/59 58/99/58 61/95/61 62/94/62
f 58/99/58 57/100/57 60/96/60 61/95/61
f 8/101/8 56/102/56 59/98/59 9/97/9
f 56/102/56 55/103/55 58/99/58 59/98/59
f 55/103/55 54/104/54 57/100/57 58/99/58
f 7/105/7 53/106/53 56/102/56 8/101/8
f 53/106/53 52/107/52 55/103/55 56/102/56
f 52/107/52 51/108/51 54/104/54 55/103/55
f 6/109/6 50/110/50 53/106/53 7/105/7
f 50/110/50 49/111/49 52/107/52 53/106/53
f 49/111/49 48/112/48 51/108/51 52/107/52
f 5/113/5 47/114/47 50/110/50 6/109/6
f 47/114/47 46/115/46 49/111/49 50/110/50
f 46/115/46 45/116/45 48/112/48 49/111/49
f 4/117/4 44/118/44 47/114/47 5/113/5
f 44/118/44 43/119/43 46/115/46 47/114/47
f 43/119/43 42/120/42 45/116/45 46/115/46
f 3/121/3 41/122/41 44/118/44 4/117/4
f 41/122/41 40/123/40 43/119/43 44/118/44
f 40/123/40 39/124/39 42/120/42 43/119/43
f 2/125/2 38/126/38 41/122/41 3/121/3
f 38/126/38 37/127/37 40/123/40 41/122/41
f 37/127/37 36/128/36 39/124/39 40/123/40
f 1/129/1 33/130/33 38/126/38 2/125/2
f 33/130/33 34/131/34 37/127/37 38/126/38
f 34/131/34 35/132/35 36/128/36 37/127/37
